<svg version="1" xmlns="http://www.w3.org/2000/svg" width="433.333" height="433.333" viewBox="0 0 325.000000 325.000000"><path d="M114.3 36.3c-.4.7-.8 31.2-.4 35.2.1.7 17.8 1 51.6 1h51.6l-.2-8.4c-.3-14.2-4.3-24.8-10.3-27.3-2.4-1-13.5-1.3-47.4-1.3-24.4 0-44.6.4-44.9.8zM159.7 85.6c-.1.1-3.8.4-8.2.8-34.3 2.7-64.1 22.5-78.9 52.3-8 15.9-11.1 30.5-10.9 51.3.3 53.3 32.8 90.6 85.8 98.5 5.1.8 21.7.7 29.3-.1 9-.9 23.2-4.9 31.5-8.7 30.8-14.3 49.9-41.3 54.3-77 1-7.6 1-21.5.2-27.2-.4-2.8-1.1-7-1.4-9.5-2.2-16.1-13.1-37.8-25.2-50.3-16.6-17.1-42.3-28.8-65.7-29.7-2.2 0-5.5-.2-7.3-.4-1.8-.1-3.4-.1-3.5 0zm16.8 41.9c19.9 7 30.7 28.4 30.7 61 .1 33.9-11.2 54.2-33.3 60-5.4 1.4-19.4 1.3-24.4-.3-10.2-3.2-18.2-9.6-23.8-19.2-9-15.5-11-49.7-4.1-70.8 5.9-18 17.8-30 31.9-31.9 1.7-.3 3.2-.6 3.4-.9 1-1 15.1.5 19.6 2.1z"/></svg>