<?xml version="1.0" encoding="UTF-8" standalone="no"?>
<svg
   xmlns:svg="http://www.w3.org/2000/svg"
   xmlns="http://www.w3.org/2000/svg"
   viewBox="0 0 771.02667 241.89333"
   height="241.89333"
   width="771.02667"
   xml:space="preserve"
   id="svg2"
   version="1.1">
   <g
     transform="matrix(1.3333333,0,0,-1.3333333,0,241.89333)"
     id="g10"><g
       transform="scale(0.1)"
       id="g12"><path
         id="path14"
         style="fill:#45484f;fill-opacity:1;fill-rule:nonzero;stroke:none"
         d="m 418.102,640.789 c 18.703,-280.578 152.308,-358.07 368.75,-358.07 157.656,0 280.578,50.769 371.428,117.582 h 120.24 V 143.77 C 1166.29,79.6289 1008.64,7.48828 728.066,7.48828 268.461,7.48828 17.2813,280.039 17.2813,720.941 c 0,451.599 293.9337,729.489 684.0627,729.489 411.506,0 630.626,-227.13 630.626,-689.399 0,-48.101 -5.35,-106.89 -5.35,-120.242 z m 5.339,235.141 h 523.743 c -8.02,248.51 -93.528,328.67 -245.84,328.67 -136.274,0 -248.508,-66.8 -277.903,-328.67" /><path
         id="path16"
         style="fill:#45484f;fill-opacity:1;fill-rule:nonzero;stroke:none"
         d="m 1957.27,1279.42 c 130.93,96.19 323.32,171.01 510.37,171.01 203.08,0 376.77,-77.49 376.77,-392.8 V 26.1992 H 2454.28 V 958.762 c 0,138.948 -53.45,179.038 -173.69,179.038 -120.24,0 -229.8,-32.07 -317.98,-64.14 V 26.1992 H 1572.48 V 1429.05 h 264.54 c 66.8,0 104.21,-29.39 120.25,-149.63" /><path
         id="path18"
         style="fill:#45484f;fill-opacity:1;fill-rule:nonzero;stroke:none"
         d="M 3090.25,125.059 V 413.66 h 122.91 c 64.14,-58.789 181.71,-117.582 344.71,-117.582 157.65,0 240.48,42.754 240.48,130.942 0,85.5 -50.76,125.582 -248.5,149.628 -307.3,37.422 -470.29,152.313 -470.29,427.542 0,283.24 211.1,440.9 555.8,440.9 203.08,0 328.67,-40.08 440.89,-96.2 v -283.24 h -117.56 c -64.13,48.1 -176.36,93.53 -320.66,93.53 -152.31,0 -211.1,-45.43 -211.1,-125.59 0,-72.152 69.48,-109.563 261.87,-133.617 334.02,-42.754 472.96,-152.301 472.96,-435.551 0,-275.231 -179.03,-454.2618 -585.18,-454.2618 -229.81,0 -376.78,53.4492 -486.33,114.8988" /><path
         id="path20"
         style="fill:#45484f;fill-opacity:1;fill-rule:nonzero;stroke:none"
         d="m 4322.08,720.941 c 0,451.599 320.65,729.489 716.13,729.489 395.47,0 716.12,-277.89 716.12,-729.489 0,-448.91 -320.65,-713.45272 -716.12,-713.45272 -395.48,0 -716.13,264.54272 -716.13,713.45272 z m 1036.78,-2.66 c 0,304.609 -130.94,454.259 -320.65,454.259 -189.73,0 -320.66,-149.65 -320.66,-454.259 0,-301.961 130.93,-432.89 320.66,-432.89 189.71,0 320.65,130.929 320.65,432.89" /><path
         id="path22"
         style="fill:#f57e1f;fill-opacity:1;fill-rule:nonzero;stroke:none"
         d="m 4694.33,1806.67 v -261.31 h 730.43 v 71.17 c 0,0 -2.13,190.14 -106.78,190.14 -104.65,0 -623.65,0 -623.65,0 v 0" /></g></g></svg>